<svg width="51" height="13" viewBox="0 0 51 13" fill="none" xmlns="http://www.w3.org/2000/svg">
<path d="M15.2906 0.75C16.8386 0.75 17.9366 1.026 18.5846 1.578C19.2446 2.118 19.5746 3 19.5746 4.224C19.5746 4.848 19.5026 5.568 19.3586 6.384C18.9986 8.4 18.3806 9.84 17.5046 10.704C16.6406 11.568 15.2426 12 13.3106 12H8.52259L10.5026 0.75H15.2906ZM14.8226 3.63H13.4006L12.4466 9.12H13.8686C14.3366 9.12 14.6846 9.066 14.9126 8.958C15.1406 8.838 15.2906 8.574 15.3626 8.166L15.9926 4.584C16.0046 4.512 16.0106 4.416 16.0106 4.296C16.0106 4.02 15.9146 3.84 15.7226 3.756C15.5306 3.672 15.2306 3.63 14.8226 3.63ZM7.98259 11.946L0.350586 11.136H8.12659L7.98259 11.946ZM8.59459 8.472L0.962586 7.662H8.73859L8.59459 8.472ZM8.90059 6.744L1.26859 5.934H9.04459L8.90059 6.744ZM9.20659 5.016L1.57459 4.206H9.35059L9.20659 5.016ZM9.51259 3.288L1.88059 2.478H9.63859L9.51259 3.288ZM8.28859 10.2L0.656586 9.39H8.43259L8.28859 10.2ZM9.80059 1.56L2.18659 0.75H9.94459L9.80059 1.56ZM23.9994 0.75V1.56L16.9254 0.75H23.9994ZM23.9994 2.478V3.288L16.9254 2.478H23.9994ZM23.9994 4.206V5.016L16.9254 4.206H23.9994ZM23.9994 5.934V6.744L16.9254 5.934H23.9994ZM23.9994 7.662V8.472L16.9254 7.662H23.9994ZM23.9994 9.39V10.2L16.9254 9.39H23.9994ZM23.9994 11.136V11.946L16.9254 11.136H23.9994ZM30.3894 12V7.86H30.1914L28.6974 12H24.5394V0.75H28.1214L27.7974 7.032H27.9054L30.2454 0.75H32.9634V7.032H33.0714L34.9974 0.75H38.5794L34.9254 12H30.3894ZM41.3183 6.294C41.2943 6.39 41.2703 6.522 41.2463 6.69L34.1723 5.934H41.3723L41.3183 6.294ZM41.1203 7.662C41.0843 7.938 41.0663 8.19 41.0663 8.418L33.9743 7.662H41.1203ZM41.8043 4.206L41.5883 4.944L34.6043 4.206H41.8043ZM41.0843 9.39C41.1323 9.726 41.1743 9.978 41.2103 10.146L34.2083 9.39H41.0843ZM42.5423 2.478C42.3743 2.79 42.2543 3.03 42.1823 3.198L35.4503 2.478H42.5423ZM41.6243 11.136C41.7803 11.412 41.9603 11.634 42.1643 11.802L35.9363 11.136H41.6243ZM44.2523 0.75C43.9043 0.965999 43.6343 1.164 43.4423 1.344L37.9343 0.75H44.2523ZM45.8363 12.27C44.3243 12.27 43.2383 11.976 42.5783 11.388C41.9303 10.8 41.6063 9.894 41.6063 8.67C41.6063 8.154 41.6903 7.392 41.8583 6.384C42.2183 4.32 42.8363 2.82 43.7123 1.884C44.6003 0.947999 45.9983 0.479999 47.9063 0.479999C48.3503 0.479999 48.8543 0.527999 49.4183 0.623999C49.9943 0.708 50.4143 0.816 50.6783 0.948L49.6703 3.702C48.9623 3.534 48.2963 3.45 47.6723 3.45C47.0603 3.45 46.6223 3.51 46.3583 3.63C46.0943 3.75 45.9323 3.99 45.8723 4.35L45.0443 9.066C45.4763 9.162 45.9203 9.21 46.3763 9.21C47.3483 9.21 48.2363 9.066 49.0403 8.778L48.7523 11.802C47.9843 12.114 47.0123 12.27 45.8363 12.27Z" fill="#F3F4F5"/>
<path d="M4.85059 13.8H50.1563V14.7H4.85059V13.8Z" fill="#F3F4F5"/>
</svg>
