<svg width="249" height="90" viewBox="0 0 249 90" fill="none" xmlns="http://www.w3.org/2000/svg">
<rect width="249" height="90" rx="4" fill="#090909" fill-opacity="0.7"/>
<mask id="mask0_169_131" style="mask-type:alpha" maskUnits="userSpaceOnUse" x="30" y="28" width="23" height="24">
<path d="M31.375 28.9998L30 30.3748L33.025 34.6112C33.1524 34.7896 33.3205 34.935 33.5154 35.0352C33.7104 35.1354 33.9264 35.1876 34.1456 35.1873H34.2419C34.4227 35.1872 34.6017 35.2227 34.7687 35.2918C34.9358 35.361 35.0876 35.4623 35.2154 35.5902L38.8935 39.2683L35.2951 42.9176C34.6797 42.7364 34.0305 42.7011 33.399 42.8146C32.7675 42.928 32.1712 43.1871 31.6573 43.5711C31.1434 43.9552 30.726 44.4537 30.4384 45.0272C30.1507 45.6007 30.0006 46.2333 30 46.8748C30.0008 47.466 30.1287 48.0501 30.375 48.5875C30.6213 49.1249 30.9802 49.6031 31.4274 49.9897C31.8746 50.3763 32.3997 50.6623 32.9671 50.8282C33.5345 50.9942 34.131 51.0362 34.716 50.9515C35.3011 50.8668 35.8611 50.6573 36.3582 50.3373C36.8552 50.0172 37.2777 49.5941 37.5969 49.0965C37.9161 48.599 38.1247 48.0386 38.2084 47.4534C38.2921 46.8682 38.2491 46.2718 38.0822 45.7047L41.7315 42.1063L43.0625 43.4373L42.6431 44.6941C42.5625 44.9363 42.551 45.1962 42.6098 45.4446C42.6685 45.6931 42.7953 45.9202 42.9759 46.1007L47.5904 50.7152C47.8482 50.973 48.1979 51.1178 48.5625 51.1178C48.9271 51.1178 49.2768 50.973 49.5346 50.7152L51.7154 48.5345C51.9731 48.2766 52.118 47.9269 52.118 47.5623C52.118 47.1977 51.9731 46.8481 51.7154 46.5902L47.1009 41.9757C46.9204 41.7951 46.6932 41.6683 46.4448 41.6096C46.1964 41.5508 45.9365 41.5624 45.6942 41.6429L44.4375 42.0623L43.1175 40.7423L46.8025 37.1082C47.4138 37.2714 48.0544 37.292 48.675 37.1684C49.2955 37.0449 49.8794 36.7805 50.3815 36.3956C50.8837 36.0107 51.2908 35.5157 51.5714 34.9486C51.852 34.3815 51.9987 33.7575 52 33.1248C52 32.7549 51.9519 32.3961 51.8597 32.0564L48.9172 35.0003L46.5 34.4998L45.9995 32.0839L48.9434 29.1401C48.2431 28.9518 47.5055 28.9514 46.805 29.1391C46.1046 29.3267 45.4659 29.6957 44.9535 30.2088C44.4411 30.7219 44.073 31.361 43.8863 32.0617C43.6997 32.7625 43.701 33.5 43.8903 34.2001L40.2603 37.8823L36.5904 34.2152C36.3325 33.9574 36.1876 33.6077 36.1875 33.2431V33.1454C36.1875 32.9265 36.1352 32.7107 36.035 32.516C35.9348 32.3213 35.7896 32.1534 35.6114 32.0262L31.375 28.9998ZM44.6383 43.6381C44.7021 43.574 44.778 43.5233 44.8615 43.4886C44.945 43.4539 45.0346 43.4361 45.125 43.4361C45.2154 43.4361 45.305 43.4539 45.3885 43.4886C45.472 43.5233 45.5479 43.574 45.6117 43.6381L49.7367 47.7631C49.8007 47.827 49.8514 47.9029 49.886 47.9864C49.9206 48.0699 49.9384 48.1594 49.9384 48.2498C49.9384 48.3402 49.9206 48.4297 49.886 48.5133C49.8514 48.5968 49.8007 48.6727 49.7367 48.7366C49.6728 48.8005 49.5969 48.8512 49.5134 48.8858C49.4299 48.9204 49.3404 48.9382 49.25 48.9382C49.1596 48.9382 49.0701 48.9204 48.9866 48.8858C48.9031 48.8512 48.8272 48.8005 48.7633 48.7366L44.6383 44.6116C44.5742 44.5477 44.5234 44.4718 44.4888 44.3883C44.4541 44.3048 44.4363 44.2153 44.4363 44.1248C44.4363 44.0344 44.4541 43.9449 44.4888 43.8613C44.5234 43.7778 44.5742 43.7019 44.6383 43.6381ZM34.125 44.1248L34.7726 44.4576L35.5 44.4933L35.8946 45.1052L36.5065 45.4998L36.5423 46.2272L36.875 46.8748L36.5423 47.5224L36.5065 48.2498L35.8946 48.6444L35.5 49.2563L34.7726 49.2921L34.125 49.6248L33.4774 49.2921L32.75 49.2563L32.3554 48.6444L31.7435 48.2498L31.7077 47.5224L31.375 46.8748L31.7077 46.2272L31.7435 45.4998L32.3554 45.1052L32.75 44.4933L33.4774 44.4576L34.125 44.1248Z" fill="white"/>
</mask>
<g mask="url(#mask0_169_131)">
<path d="M31.375 28.9998L30 30.3748L33.025 34.6112C33.1524 34.7896 33.3205 34.935 33.5154 35.0352C33.7104 35.1354 33.9264 35.1876 34.1456 35.1873H34.2419C34.4227 35.1872 34.6017 35.2227 34.7687 35.2918C34.9358 35.361 35.0876 35.4623 35.2154 35.5902L38.8935 39.2683L35.2951 42.9176C34.6797 42.7364 34.0305 42.7011 33.399 42.8146C32.7675 42.928 32.1712 43.1871 31.6573 43.5711C31.1434 43.9552 30.726 44.4537 30.4384 45.0272C30.1507 45.6007 30.0006 46.2333 30 46.8748C30.0008 47.466 30.1287 48.0501 30.375 48.5875C30.6213 49.1249 30.9802 49.6031 31.4274 49.9897C31.8746 50.3763 32.3997 50.6623 32.9671 50.8282C33.5345 50.9942 34.131 51.0362 34.716 50.9515C35.3011 50.8668 35.8611 50.6573 36.3582 50.3373C36.8552 50.0172 37.2777 49.5941 37.5969 49.0965C37.9161 48.599 38.1247 48.0386 38.2084 47.4534C38.2921 46.8682 38.2491 46.2718 38.0822 45.7047L41.7315 42.1063L43.0625 43.4373L42.6431 44.6941C42.5625 44.9363 42.551 45.1962 42.6098 45.4446C42.6685 45.6931 42.7953 45.9202 42.9759 46.1007L47.5904 50.7152C47.8482 50.973 48.1979 51.1178 48.5625 51.1178C48.9271 51.1178 49.2768 50.973 49.5346 50.7152L51.7154 48.5345C51.9731 48.2766 52.118 47.9269 52.118 47.5623C52.118 47.1977 51.9731 46.8481 51.7154 46.5902L47.1009 41.9757C46.9204 41.7951 46.6932 41.6683 46.4448 41.6096C46.1964 41.5508 45.9365 41.5624 45.6942 41.6429L44.4375 42.0623L43.1175 40.7423L46.8025 37.1082C47.4138 37.2714 48.0544 37.292 48.675 37.1684C49.2955 37.0449 49.8794 36.7805 50.3815 36.3956C50.8837 36.0107 51.2908 35.5157 51.5714 34.9486C51.852 34.3815 51.9987 33.7575 52 33.1248C52 32.7549 51.9519 32.3961 51.8597 32.0564L48.9172 35.0003L46.5 34.4998L45.9995 32.0839L48.9434 29.1401C48.2431 28.9518 47.5055 28.9514 46.805 29.1391C46.1046 29.3267 45.4659 29.6957 44.9535 30.2088C44.4411 30.7219 44.073 31.361 43.8863 32.0617C43.6997 32.7625 43.701 33.5 43.8903 34.2001L40.2603 37.8823L36.5904 34.2152C36.3325 33.9574 36.1876 33.6077 36.1875 33.2431V33.1454C36.1875 32.9265 36.1352 32.7107 36.035 32.516C35.9348 32.3213 35.7896 32.1534 35.6114 32.0262L31.375 28.9998ZM44.6383 43.6381C44.7021 43.574 44.778 43.5233 44.8615 43.4886C44.945 43.4539 45.0346 43.4361 45.125 43.4361C45.2154 43.4361 45.305 43.4539 45.3885 43.4886C45.472 43.5233 45.5479 43.574 45.6117 43.6381L49.7367 47.7631C49.8007 47.827 49.8514 47.9029 49.886 47.9864C49.9206 48.0699 49.9384 48.1594 49.9384 48.2498C49.9384 48.3402 49.9206 48.4297 49.886 48.5133C49.8514 48.5968 49.8007 48.6727 49.7367 48.7366C49.6728 48.8005 49.5969 48.8512 49.5134 48.8858C49.4299 48.9204 49.3404 48.9382 49.25 48.9382C49.1596 48.9382 49.0701 48.9204 48.9866 48.8858C48.9031 48.8512 48.8272 48.8005 48.7633 48.7366L44.6383 44.6116C44.5742 44.5477 44.5234 44.4718 44.4888 44.3883C44.4541 44.3048 44.4363 44.2153 44.4363 44.1248C44.4363 44.0344 44.4541 43.9449 44.4888 43.8613C44.5234 43.7778 44.5742 43.7019 44.6383 43.6381ZM34.125 44.1248L34.7726 44.4576L35.5 44.4933L35.8946 45.1052L36.5065 45.4998L36.5423 46.2272L36.875 46.8748L36.5423 47.5224L36.5065 48.2498L35.8946 48.6444L35.5 49.2563L34.7726 49.2921L34.125 49.6248L33.4774 49.2921L32.75 49.2563L32.3554 48.6444L31.7435 48.2498L31.7077 47.5224L31.375 46.8748L31.7077 46.2272L31.7435 45.4998L32.3554 45.1052L32.75 44.4933L33.4774 44.4576L34.125 44.1248Z" fill="#F3F4F5" stroke="#F3F4F5" stroke-width="4"/>
</g>
<path d="M74.4083 34C76.4723 34 77.9363 34.368 78.8003 35.104C79.6803 35.824 80.1203 37 80.1203 38.632C80.1203 39.464 80.0243 40.424 79.8323 41.512C79.3523 44.2 78.5283 46.12 77.3603 47.272C76.2083 48.424 74.3443 49 71.7683 49H65.3843L68.0243 34H74.4083ZM73.7843 37.84H71.8883L70.6163 45.16H72.5123C73.1363 45.16 73.6003 45.088 73.9043 44.944C74.2083 44.784 74.4083 44.432 74.5043 43.888L75.3443 39.112C75.3603 39.016 75.3683 38.888 75.3683 38.728C75.3683 38.36 75.2403 38.12 74.9843 38.008C74.7283 37.896 74.3283 37.84 73.7843 37.84ZM64.6643 48.928L54.4883 47.848H64.8563L64.6643 48.928ZM65.4803 44.296L55.3043 43.216H65.6723L65.4803 44.296ZM65.8883 41.992L55.7123 40.912H66.0803L65.8883 41.992ZM66.2963 39.688L56.1203 38.608H66.4883L66.2963 39.688ZM66.7043 37.384L56.5283 36.304H66.8723L66.7043 37.384ZM65.0723 46.6L54.8963 45.52H65.2643L65.0723 46.6ZM67.0883 35.08L56.9363 34H67.2803L67.0883 35.08ZM92.068 45.256C92.692 45.256 93.156 45.184 93.46 45.04C93.764 44.88 93.964 44.528 94.06 43.984L95.164 37.744H93.244C92.636 37.744 92.18 37.824 91.876 37.984C91.572 38.128 91.372 38.472 91.276 39.016L90.172 45.256H92.068ZM94.036 33.64C96.068 33.64 97.516 34.04 98.38 34.84C99.244 35.624 99.676 36.84 99.676 38.488C99.676 40.136 99.412 41.864 98.884 43.672C98.372 45.464 97.548 46.864 96.412 47.872C95.292 48.864 93.644 49.36 91.468 49.36C89.308 49.36 87.796 48.968 86.932 48.184C86.068 47.384 85.636 46.16 85.636 44.512C85.636 43.728 85.748 42.696 85.972 41.416C86.196 40.12 86.492 39.008 86.86 38.08C87.228 37.136 87.724 36.32 88.348 35.632C89.548 34.304 91.444 33.64 94.036 33.64ZM85.276 41.392C85.244 41.52 85.212 41.696 85.18 41.92L75.748 40.912H85.348L85.276 41.392ZM85.012 43.216C84.964 43.584 84.94 43.92 84.94 44.224L75.484 43.216H85.012ZM85.924 38.608L85.636 39.592L76.324 38.608H85.924ZM84.964 45.52C85.028 45.968 85.084 46.304 85.132 46.528L75.796 45.52H84.964ZM86.908 36.304C86.684 36.72 86.524 37.04 86.428 37.264L77.452 36.304H86.908ZM85.684 47.848C85.892 48.216 86.132 48.512 86.404 48.736L78.1 47.848H85.684ZM89.188 34C88.724 34.288 88.364 34.552 88.108 34.792L80.764 34H89.188ZM105.59 34V35.08L96.1583 34H105.59ZM105.59 36.304V37.384L96.1583 36.304H105.59ZM105.59 38.608V39.688L96.1583 38.608H105.59ZM105.59 40.912V41.992L96.1583 40.912H105.59ZM105.59 43.216V44.296L96.1583 43.216H105.59ZM105.59 45.52V46.6L96.1583 45.52H105.59ZM105.59 47.848V48.928L96.1583 47.848H105.59ZM114.11 49V43.48H113.846L111.854 49H106.31V34H111.086L110.654 42.376H110.798L113.918 34H117.542V42.376H117.686L120.254 34H125.03L120.158 49H114.11ZM134.898 43.672C134.834 43.56 134.802 43.408 134.802 43.216C134.802 43.008 134.818 42.776 134.85 42.52H134.658L133.53 49H128.97L131.61 34H135.906L138.354 39.328C138.402 39.44 138.426 39.6 138.426 39.808C138.426 40 138.41 40.224 138.378 40.48H138.57L139.722 34H144.282L141.642 49H137.346L134.898 43.672ZM128.25 48.928L118.074 47.848H128.442L128.25 48.928ZM129.066 44.296L118.89 43.216H129.258L129.066 44.296ZM129.474 41.992L119.298 40.912H129.666L129.474 41.992ZM129.882 39.688L119.706 38.608H130.074L129.882 39.688ZM130.29 37.384L120.114 36.304H130.458L130.29 37.384ZM128.658 46.6L118.482 45.52H128.85L128.658 46.6ZM130.674 35.08L120.522 34H130.866L130.674 35.08ZM149.096 41.392C149.064 41.52 149.032 41.696 149 41.92L139.568 40.912H149.168L149.096 41.392ZM148.832 43.216C148.784 43.584 148.76 43.92 148.76 44.224L139.304 43.216H148.832ZM149.744 38.608L149.456 39.592L140.144 38.608H149.744ZM148.784 45.52C148.848 45.968 148.904 46.304 148.952 46.528L139.616 45.52H148.784ZM150.728 36.304C150.504 36.72 150.344 37.04 150.248 37.264L141.272 36.304H150.728ZM149.504 47.848C149.712 48.216 149.952 48.512 150.224 48.736L141.92 47.848H149.504ZM153.008 34C152.544 34.288 152.184 34.552 151.928 34.792L144.584 34H153.008ZM155.12 49.36C153.104 49.36 151.656 48.968 150.776 48.184C149.912 47.4 149.48 46.192 149.48 44.56C149.48 43.872 149.592 42.856 149.816 41.512C150.296 38.76 151.12 36.76 152.288 35.512C153.472 34.264 155.336 33.64 157.88 33.64C158.472 33.64 159.144 33.704 159.896 33.832C160.664 33.944 161.224 34.088 161.576 34.264L160.232 37.936C159.288 37.712 158.4 37.6 157.568 37.6C156.752 37.6 156.168 37.68 155.816 37.84C155.464 38 155.248 38.32 155.168 38.8L154.064 45.088C154.64 45.216 155.232 45.28 155.84 45.28C157.136 45.28 158.32 45.088 159.392 44.704L159.008 48.736C157.984 49.152 156.688 49.36 155.12 49.36ZM170.279 49H165.479L171.791 34H178.847L179.903 49H175.079L174.983 46.624H171.215L170.279 49ZM174.623 42.808V38.608H174.383L172.703 42.808H174.623ZM164.711 48.904L154.871 47.848H165.167L164.711 48.904ZM165.695 46.576L155.855 45.52H166.151L165.695 46.576ZM166.679 44.272L156.839 43.216H167.111L166.679 44.272ZM167.639 41.968L157.823 40.912H168.095L167.639 41.968ZM168.623 39.664L158.807 38.608H169.055L168.623 39.664ZM170.567 35.032L160.775 34H170.999L170.567 35.032ZM169.583 37.336L159.791 36.304H170.015L169.583 37.336ZM170.567 35.032L170.999 34H160.775L170.567 35.032ZM196.021 34C198.757 34 200.125 35.224 200.125 37.672C200.125 38.68 199.973 39.64 199.669 40.552C199.109 42.28 198.229 43.432 197.029 44.008L198.613 49H193.597L192.493 44.536H191.509L190.741 49H186.181L188.821 34H196.021ZM193.213 40.84C193.757 40.84 194.165 40.784 194.437 40.672C194.725 40.544 194.917 40.2 195.013 39.64C195.125 39.064 195.181 38.712 195.181 38.584C195.181 38.264 195.053 38.064 194.797 37.984C194.557 37.888 194.157 37.84 193.597 37.84H192.685L192.157 40.84H193.213ZM185.461 48.928L175.285 47.848H185.653L185.461 48.928ZM186.277 44.296L176.101 43.216H186.469L186.277 44.296ZM187.069 39.688L176.917 38.608H187.261L187.069 39.688ZM187.477 37.384L177.325 36.304H187.669L187.477 37.384ZM185.869 46.6L175.693 45.52H186.061L185.869 46.6ZM187.885 35.08L177.733 34H188.077L187.885 35.08ZM186.661 41.992L176.509 40.912H186.853L186.661 41.992ZM206.555 39.688L196.379 38.608H206.723C206.643 38.928 206.587 39.288 206.555 39.688ZM207.371 36.304L207.011 37.36L197.051 36.304H207.371ZM206.555 40.912C206.587 41.344 206.651 41.704 206.747 41.992L196.595 40.912H206.555ZM209.915 44.296L197.219 43.216H207.563C208.091 43.728 208.875 44.088 209.915 44.296ZM209.171 34C208.803 34.24 208.451 34.568 208.115 34.984L198.851 34H209.171ZM196.811 45.52H205.787L205.427 46.576L196.811 45.52ZM196.403 47.848H205.019L204.659 48.904L196.403 47.848ZM206.819 44.776C208.163 45.144 209.387 45.328 210.491 45.328C211.611 45.328 212.523 45.28 213.227 45.184L213.419 43.984L211.427 43.792C209.907 43.648 208.827 43.304 208.187 42.76C207.563 42.216 207.251 41.448 207.251 40.456C207.251 40.024 207.299 39.544 207.395 39.016C207.763 36.968 208.435 35.56 209.411 34.792C210.387 34.024 211.883 33.64 213.899 33.64C215.931 33.64 217.723 33.84 219.275 34.24L218.027 38.08C216.635 37.84 215.515 37.72 214.667 37.72C213.835 37.72 213.115 37.76 212.507 37.84L212.315 39.016L213.923 39.184C215.555 39.36 216.715 39.752 217.403 40.36C218.091 40.952 218.435 41.752 218.435 42.76C218.435 43.784 218.219 44.84 217.787 45.928C217.547 46.488 217.291 46.96 217.019 47.344C216.763 47.712 216.427 48.032 216.011 48.304C215.611 48.56 215.243 48.76 214.907 48.904C214.571 49.032 214.139 49.128 213.611 49.192C212.875 49.304 211.963 49.36 210.875 49.36C208.891 49.36 207.091 49.152 205.475 48.736L206.819 44.776Z" fill="#F3F4F5"/>
</svg>
