<svg width="190" height="47" viewBox="0 0 190 47" fill="none" xmlns="http://www.w3.org/2000/svg">
<g clip-path="url(#clip0_7_96)">
<mask id="path-1-inside-1_7_96" fill="white">
<path d="M1.375 6.99982L0 8.37482L3.025 12.6112C3.15235 12.7896 3.3205 12.935 3.51543 13.0352C3.71037 13.1354 3.92644 13.1876 4.14563 13.1873H4.24188C4.42266 13.1872 4.6017 13.2227 4.76874 13.2918C4.93579 13.361 5.08756 13.4623 5.21537 13.5902L8.8935 17.2683L5.29513 20.9176C4.67967 20.7364 4.03046 20.7011 3.399 20.8146C2.76754 20.928 2.1712 21.1871 1.65729 21.5711C1.14337 21.9552 0.726029 22.4537 0.438355 23.0272C0.150681 23.6007 0.000594276 24.2333 0 24.8748C0.000824262 25.466 0.128705 26.0501 0.374978 26.5875C0.621251 27.1249 0.980163 27.6031 1.4274 27.9897C1.87463 28.3763 2.39973 28.6623 2.96713 28.8282C3.53453 28.9942 4.13097 29.0362 4.71604 28.9515C5.30111 28.8668 5.86113 28.6573 6.35817 28.3373C6.85521 28.0172 7.27766 27.5941 7.59688 27.0965C7.91611 26.599 8.12466 26.0386 8.2084 25.4534C8.29214 24.8682 8.24912 24.2718 8.08225 23.7047L11.7315 20.1063L13.0625 21.4373L12.6431 22.6941C12.5625 22.9363 12.551 23.1962 12.6098 23.4446C12.6685 23.6931 12.7953 23.9202 12.9759 24.1007L17.5904 28.7152C17.8482 28.973 18.1979 29.1178 18.5625 29.1178C18.9271 29.1178 19.2768 28.973 19.5346 28.7152L21.7154 26.5345C21.9731 26.2766 22.118 25.9269 22.118 25.5623C22.118 25.1977 21.9731 24.8481 21.7154 24.5902L17.1009 19.9757C16.9204 19.7951 16.6932 19.6683 16.4448 19.6096C16.1964 19.5508 15.9365 19.5624 15.6942 19.6429L14.4375 20.0623L13.1175 18.7423L16.8025 15.1082C17.4138 15.2714 18.0544 15.292 18.675 15.1684C19.2955 15.0449 19.8794 14.7805 20.3815 14.3956C20.8837 14.0107 21.2908 13.5157 21.5714 12.9486C21.852 12.3815 21.9987 11.7575 22 11.1248C22 10.7549 21.9519 10.3961 21.8597 10.0564L18.9172 13.0003L16.5 12.4998L15.9995 10.0839L18.9434 7.14007C18.2431 6.95178 17.5055 6.95143 16.805 7.13905C16.1046 7.32668 15.4659 7.69565 14.9535 8.20876C14.4411 8.72188 14.073 9.36102 13.8863 10.0617C13.6997 10.7625 13.701 11.5 13.8903 12.2001L10.2603 15.8823L6.59038 12.2152C6.33249 11.9574 6.18758 11.6077 6.1875 11.2431V11.1454C6.18752 10.9265 6.13525 10.7107 6.03504 10.516C5.93483 10.3213 5.78958 10.1534 5.61137 10.0262L1.375 6.99982ZM14.6383 21.6381C14.7021 21.574 14.778 21.5233 14.8615 21.4886C14.945 21.4539 15.0346 21.4361 15.125 21.4361C15.2154 21.4361 15.305 21.4539 15.3885 21.4886C15.472 21.5233 15.5479 21.574 15.6117 21.6381L19.7367 25.7631C19.8007 25.827 19.8514 25.9029 19.886 25.9864C19.9206 26.0699 19.9384 26.1594 19.9384 26.2498C19.9384 26.3402 19.9206 26.4297 19.886 26.5133C19.8514 26.5968 19.8007 26.6727 19.7367 26.7366C19.6728 26.8005 19.5969 26.8512 19.5134 26.8858C19.4299 26.9204 19.3404 26.9382 19.25 26.9382C19.1596 26.9382 19.0701 26.9204 18.9866 26.8858C18.9031 26.8512 18.8272 26.8005 18.7633 26.7366L14.6383 22.6116C14.5742 22.5477 14.5234 22.4718 14.4888 22.3883C14.4541 22.3048 14.4363 22.2153 14.4363 22.1248C14.4363 22.0344 14.4541 21.9449 14.4888 21.8613C14.5234 21.7778 14.5742 21.7019 14.6383 21.6381ZM4.125 22.1248L4.77262 22.4576L5.5 22.4933L5.89463 23.1052L6.5065 23.4998L6.54225 24.2272L6.875 24.8748L6.54225 25.5224L6.5065 26.2498L5.89463 26.6444L5.5 27.2563L4.77262 27.2921L4.125 27.6248L3.47738 27.2921L2.75 27.2563L2.35538 26.6444L1.7435 26.2498L1.70775 25.5224L1.375 24.8748L1.70775 24.2272L1.7435 23.4998L2.35538 23.1052L2.75 22.4933L3.47738 22.4576L4.125 22.1248Z"/>
</mask>
<path d="M1.375 6.99982L0 8.37482L3.025 12.6112C3.15235 12.7896 3.3205 12.935 3.51543 13.0352C3.71037 13.1354 3.92644 13.1876 4.14563 13.1873H4.24188C4.42266 13.1872 4.6017 13.2227 4.76874 13.2918C4.93579 13.361 5.08756 13.4623 5.21537 13.5902L8.8935 17.2683L5.29513 20.9176C4.67967 20.7364 4.03046 20.7011 3.399 20.8146C2.76754 20.928 2.1712 21.1871 1.65729 21.5711C1.14337 21.9552 0.726029 22.4537 0.438355 23.0272C0.150681 23.6007 0.000594276 24.2333 0 24.8748C0.000824262 25.466 0.128705 26.0501 0.374978 26.5875C0.621251 27.1249 0.980163 27.6031 1.4274 27.9897C1.87463 28.3763 2.39973 28.6623 2.96713 28.8282C3.53453 28.9942 4.13097 29.0362 4.71604 28.9515C5.30111 28.8668 5.86113 28.6573 6.35817 28.3373C6.85521 28.0172 7.27766 27.5941 7.59688 27.0965C7.91611 26.599 8.12466 26.0386 8.2084 25.4534C8.29214 24.8682 8.24912 24.2718 8.08225 23.7047L11.7315 20.1063L13.0625 21.4373L12.6431 22.6941C12.5625 22.9363 12.551 23.1962 12.6098 23.4446C12.6685 23.6931 12.7953 23.9202 12.9759 24.1007L17.5904 28.7152C17.8482 28.973 18.1979 29.1178 18.5625 29.1178C18.9271 29.1178 19.2768 28.973 19.5346 28.7152L21.7154 26.5345C21.9731 26.2766 22.118 25.9269 22.118 25.5623C22.118 25.1977 21.9731 24.8481 21.7154 24.5902L17.1009 19.9757C16.9204 19.7951 16.6932 19.6683 16.4448 19.6096C16.1964 19.5508 15.9365 19.5624 15.6942 19.6429L14.4375 20.0623L13.1175 18.7423L16.8025 15.1082C17.4138 15.2714 18.0544 15.292 18.675 15.1684C19.2955 15.0449 19.8794 14.7805 20.3815 14.3956C20.8837 14.0107 21.2908 13.5157 21.5714 12.9486C21.852 12.3815 21.9987 11.7575 22 11.1248C22 10.7549 21.9519 10.3961 21.8597 10.0564L18.9172 13.0003L16.5 12.4998L15.9995 10.0839L18.9434 7.14007C18.2431 6.95178 17.5055 6.95143 16.805 7.13905C16.1046 7.32668 15.4659 7.69565 14.9535 8.20876C14.4411 8.72188 14.073 9.36102 13.8863 10.0617C13.6997 10.7625 13.701 11.5 13.8903 12.2001L10.2603 15.8823L6.59038 12.2152C6.33249 11.9574 6.18758 11.6077 6.1875 11.2431V11.1454C6.18752 10.9265 6.13525 10.7107 6.03504 10.516C5.93483 10.3213 5.78958 10.1534 5.61137 10.0262L1.375 6.99982ZM14.6383 21.6381C14.7021 21.574 14.778 21.5233 14.8615 21.4886C14.945 21.4539 15.0346 21.4361 15.125 21.4361C15.2154 21.4361 15.305 21.4539 15.3885 21.4886C15.472 21.5233 15.5479 21.574 15.6117 21.6381L19.7367 25.7631C19.8007 25.827 19.8514 25.9029 19.886 25.9864C19.9206 26.0699 19.9384 26.1594 19.9384 26.2498C19.9384 26.3402 19.9206 26.4297 19.886 26.5133C19.8514 26.5968 19.8007 26.6727 19.7367 26.7366C19.6728 26.8005 19.5969 26.8512 19.5134 26.8858C19.4299 26.9204 19.3404 26.9382 19.25 26.9382C19.1596 26.9382 19.0701 26.9204 18.9866 26.8858C18.9031 26.8512 18.8272 26.8005 18.7633 26.7366L14.6383 22.6116C14.5742 22.5477 14.5234 22.4718 14.4888 22.3883C14.4541 22.3048 14.4363 22.2153 14.4363 22.1248C14.4363 22.0344 14.4541 21.9449 14.4888 21.8613C14.5234 21.7778 14.5742 21.7019 14.6383 21.6381ZM4.125 22.1248L4.77262 22.4576L5.5 22.4933L5.89463 23.1052L6.5065 23.4998L6.54225 24.2272L6.875 24.8748L6.54225 25.5224L6.5065 26.2498L5.89463 26.6444L5.5 27.2563L4.77262 27.2921L4.125 27.6248L3.47738 27.2921L2.75 27.2563L2.35538 26.6444L1.7435 26.2498L1.70775 25.5224L1.375 24.8748L1.70775 24.2272L1.7435 23.4998L2.35538 23.1052L2.75 22.4933L3.47738 22.4576L4.125 22.1248Z" fill="#F3F4F5" stroke="#F3F4F5" stroke-width="4" mask="url(#path-1-inside-1_7_96)"/>
</g>
<path d="M44.4083 12C46.4723 12 47.9363 12.368 48.8003 13.104C49.6803 13.824 50.1203 15 50.1203 16.632C50.1203 17.464 50.0243 18.424 49.8323 19.512C49.3523 22.2 48.5283 24.12 47.3603 25.272C46.2083 26.424 44.3443 27 41.7683 27H35.3843L38.0243 12H44.4083ZM43.7843 15.84H41.8883L40.6163 23.16H42.5123C43.1363 23.16 43.6003 23.088 43.9043 22.944C44.2083 22.784 44.4083 22.432 44.5043 21.888L45.3443 17.112C45.3603 17.016 45.3683 16.888 45.3683 16.728C45.3683 16.36 45.2403 16.12 44.9843 16.008C44.7283 15.896 44.3283 15.84 43.7843 15.84ZM34.6643 26.928L24.4883 25.848H34.8563L34.6643 26.928ZM35.4803 22.296L25.3043 21.216H35.6723L35.4803 22.296ZM35.8883 19.992L25.7123 18.912H36.0803L35.8883 19.992ZM36.2963 17.688L26.1203 16.608H36.4883L36.2963 17.688ZM36.7043 15.384L26.5283 14.304H36.8723L36.7043 15.384ZM35.0723 24.6L24.8963 23.52H35.2643L35.0723 24.6ZM37.0883 13.08L26.9363 12H37.2803L37.0883 13.08ZM62.068 23.256C62.692 23.256 63.156 23.184 63.46 23.04C63.764 22.88 63.964 22.528 64.06 21.984L65.164 15.744H63.244C62.636 15.744 62.18 15.824 61.876 15.984C61.572 16.128 61.372 16.472 61.276 17.016L60.172 23.256H62.068ZM64.036 11.64C66.068 11.64 67.516 12.04 68.38 12.84C69.244 13.624 69.676 14.84 69.676 16.488C69.676 18.136 69.412 19.864 68.884 21.672C68.372 23.464 67.548 24.864 66.412 25.872C65.292 26.864 63.644 27.36 61.468 27.36C59.308 27.36 57.796 26.968 56.932 26.184C56.068 25.384 55.636 24.16 55.636 22.512C55.636 21.728 55.748 20.696 55.972 19.416C56.196 18.12 56.492 17.008 56.86 16.08C57.228 15.136 57.724 14.32 58.348 13.632C59.548 12.304 61.444 11.64 64.036 11.64ZM55.276 19.392C55.244 19.52 55.212 19.696 55.18 19.92L45.748 18.912H55.348L55.276 19.392ZM55.012 21.216C54.964 21.584 54.94 21.92 54.94 22.224L45.484 21.216H55.012ZM55.924 16.608L55.636 17.592L46.324 16.608H55.924ZM54.964 23.52C55.028 23.968 55.084 24.304 55.132 24.528L45.796 23.52H54.964ZM56.908 14.304C56.684 14.72 56.524 15.04 56.428 15.264L47.452 14.304H56.908ZM55.684 25.848C55.892 26.216 56.132 26.512 56.404 26.736L48.1 25.848H55.684ZM59.188 12C58.724 12.288 58.364 12.552 58.108 12.792L50.764 12H59.188ZM75.5903 12V13.08L66.1583 12H75.5903ZM75.5903 14.304V15.384L66.1583 14.304H75.5903ZM75.5903 16.608V17.688L66.1583 16.608H75.5903ZM75.5903 18.912V19.992L66.1583 18.912H75.5903ZM75.5903 21.216V22.296L66.1583 21.216H75.5903ZM75.5903 23.52V24.6L66.1583 23.52H75.5903ZM75.5903 25.848V26.928L66.1583 25.848H75.5903ZM84.1103 27V21.48H83.8463L81.8543 27H76.3103V12H81.0863L80.6543 20.376H80.7983L83.9183 12H87.5423V20.376H87.6863L90.2543 12H95.0303L90.1583 27H84.1103ZM104.898 21.672C104.834 21.56 104.802 21.408 104.802 21.216C104.802 21.008 104.818 20.776 104.85 20.52H104.658L103.53 27H98.9702L101.61 12H105.906L108.354 17.328C108.402 17.44 108.426 17.6 108.426 17.808C108.426 18 108.41 18.224 108.378 18.48H108.57L109.722 12H114.282L111.642 27H107.346L104.898 21.672ZM98.2502 26.928L88.0742 25.848H98.4422L98.2502 26.928ZM99.0662 22.296L88.8902 21.216H99.2582L99.0662 22.296ZM99.4742 19.992L89.2982 18.912H99.6662L99.4742 19.992ZM99.8822 17.688L89.7062 16.608H100.074L99.8822 17.688ZM100.29 15.384L90.1142 14.304H100.458L100.29 15.384ZM98.6582 24.6L88.4822 23.52H98.8502L98.6582 24.6ZM100.674 13.08L90.5222 12H100.866L100.674 13.08ZM119.096 19.392C119.064 19.52 119.032 19.696 119 19.92L109.568 18.912H119.168L119.096 19.392ZM118.832 21.216C118.784 21.584 118.76 21.92 118.76 22.224L109.304 21.216H118.832ZM119.744 16.608L119.456 17.592L110.144 16.608H119.744ZM118.784 23.52C118.848 23.968 118.904 24.304 118.952 24.528L109.616 23.52H118.784ZM120.728 14.304C120.504 14.72 120.344 15.04 120.248 15.264L111.272 14.304H120.728ZM119.504 25.848C119.712 26.216 119.952 26.512 120.224 26.736L111.92 25.848H119.504ZM123.008 12C122.544 12.288 122.184 12.552 121.928 12.792L114.584 12H123.008ZM125.12 27.36C123.104 27.36 121.656 26.968 120.776 26.184C119.912 25.4 119.48 24.192 119.48 22.56C119.48 21.872 119.592 20.856 119.816 19.512C120.296 16.76 121.12 14.76 122.288 13.512C123.472 12.264 125.336 11.64 127.88 11.64C128.472 11.64 129.144 11.704 129.896 11.832C130.664 11.944 131.224 12.088 131.576 12.264L130.232 15.936C129.288 15.712 128.4 15.6 127.568 15.6C126.752 15.6 126.168 15.68 125.816 15.84C125.464 16 125.248 16.32 125.168 16.8L124.064 23.088C124.64 23.216 125.232 23.28 125.84 23.28C127.136 23.28 128.32 23.088 129.392 22.704L129.008 26.736C127.984 27.152 126.688 27.36 125.12 27.36ZM140.279 27H135.479L141.791 12H148.847L149.903 27H145.079L144.983 24.624H141.215L140.279 27ZM144.623 20.808V16.608H144.383L142.703 20.808H144.623ZM134.711 26.904L124.871 25.848H135.167L134.711 26.904ZM135.695 24.576L125.855 23.52H136.151L135.695 24.576ZM136.679 22.272L126.839 21.216H137.111L136.679 22.272ZM137.639 19.968L127.823 18.912H138.095L137.639 19.968ZM138.623 17.664L128.807 16.608H139.055L138.623 17.664ZM140.567 13.032L130.775 12H140.999L140.567 13.032ZM139.583 15.336L129.791 14.304H140.015L139.583 15.336ZM140.567 13.032L140.999 12H130.775L140.567 13.032ZM166.021 12C168.757 12 170.125 13.224 170.125 15.672C170.125 16.68 169.973 17.64 169.669 18.552C169.109 20.28 168.229 21.432 167.029 22.008L168.613 27H163.597L162.493 22.536H161.509L160.741 27H156.181L158.821 12H166.021ZM163.213 18.84C163.757 18.84 164.165 18.784 164.437 18.672C164.725 18.544 164.917 18.2 165.013 17.64C165.125 17.064 165.181 16.712 165.181 16.584C165.181 16.264 165.053 16.064 164.797 15.984C164.557 15.888 164.157 15.84 163.597 15.84H162.685L162.157 18.84H163.213ZM155.461 26.928L145.285 25.848H155.653L155.461 26.928ZM156.277 22.296L146.101 21.216H156.469L156.277 22.296ZM157.069 17.688L146.917 16.608H157.261L157.069 17.688ZM157.477 15.384L147.325 14.304H157.669L157.477 15.384ZM155.869 24.6L145.693 23.52H156.061L155.869 24.6ZM157.885 13.08L147.733 12H158.077L157.885 13.08ZM156.661 19.992L146.509 18.912H156.853L156.661 19.992ZM176.555 17.688L166.379 16.608H176.723C176.643 16.928 176.587 17.288 176.555 17.688ZM177.371 14.304L177.011 15.36L167.051 14.304H177.371ZM176.555 18.912C176.587 19.344 176.651 19.704 176.747 19.992L166.595 18.912H176.555ZM179.915 22.296L167.219 21.216H177.563C178.091 21.728 178.875 22.088 179.915 22.296ZM179.171 12C178.803 12.24 178.451 12.568 178.115 12.984L168.851 12H179.171ZM166.811 23.52H175.787L175.427 24.576L166.811 23.52ZM166.403 25.848H175.019L174.659 26.904L166.403 25.848ZM176.819 22.776C178.163 23.144 179.387 23.328 180.491 23.328C181.611 23.328 182.523 23.28 183.227 23.184L183.419 21.984L181.427 21.792C179.907 21.648 178.827 21.304 178.187 20.76C177.563 20.216 177.251 19.448 177.251 18.456C177.251 18.024 177.299 17.544 177.395 17.016C177.763 14.968 178.435 13.56 179.411 12.792C180.387 12.024 181.883 11.64 183.899 11.64C185.931 11.64 187.723 11.84 189.275 12.24L188.027 16.08C186.635 15.84 185.515 15.72 184.667 15.72C183.835 15.72 183.115 15.76 182.507 15.84L182.315 17.016L183.923 17.184C185.555 17.36 186.715 17.752 187.403 18.36C188.091 18.952 188.435 19.752 188.435 20.76C188.435 21.784 188.219 22.84 187.787 23.928C187.547 24.488 187.291 24.96 187.019 25.344C186.763 25.712 186.427 26.032 186.011 26.304C185.611 26.56 185.243 26.76 184.907 26.904C184.571 27.032 184.139 27.128 183.611 27.192C182.875 27.304 181.963 27.36 180.875 27.36C178.891 27.36 177.091 27.152 175.475 26.736L176.819 22.776Z" fill="#F3F4F5"/>
<defs>
<clipPath id="clip0_7_96">
<rect width="22" height="22" fill="white" transform="translate(0 7)"/>
</clipPath>
</defs>
</svg>
